%TF.GenerationSoftware,KiCad,Pcbnew,8.0.4*%
%TF.CreationDate,2024-08-04T02:09:46+02:00*%
%TF.ProjectId,Neopixel,4e656f70-6978-4656-9c2e-6b696361645f,rev?*%
%TF.SameCoordinates,Original*%
%TF.FileFunction,Copper,L1,Top*%
%TF.FilePolarity,Positive*%
%FSLAX46Y46*%
G04 Gerber Fmt 4.6, Leading zero omitted, Abs format (unit mm)*
G04 Created by KiCad (PCBNEW 8.0.4) date 2024-08-04 02:09:46*
%MOMM*%
%LPD*%
G01*
G04 APERTURE LIST*
%TA.AperFunction,SMDPad,CuDef*%
%ADD10R,2.000000X2.000000*%
%TD*%
%TA.AperFunction,SMDPad,CuDef*%
%ADD11R,0.900000X1.500000*%
%TD*%
%TA.AperFunction,Conductor*%
%ADD12C,0.200000*%
%TD*%
G04 APERTURE END LIST*
D10*
%TO.P,GND,1,1*%
%TO.N,GND*%
X58500000Y-65950000D03*
%TD*%
%TO.P,Sig,1,1*%
%TO.N,Net-(D1-DIN)*%
X58500000Y-70000000D03*
%TD*%
%TO.P,5V,1,1*%
%TO.N,+5V*%
X58500000Y-74050000D03*
%TD*%
D11*
%TO.P,D3,1,VDD*%
%TO.N,+5V*%
X109350000Y-73300000D03*
%TO.P,D3,2,DOUT*%
%TO.N,unconnected-(D3-DOUT-Pad2)*%
X112650000Y-73300000D03*
%TO.P,D3,3,VSS*%
%TO.N,GND*%
X112650000Y-68400000D03*
%TO.P,D3,4,DIN*%
%TO.N,Net-(D2-DOUT)*%
X109350000Y-68400000D03*
%TD*%
%TO.P,D2,1,VDD*%
%TO.N,+5V*%
X96850000Y-73450000D03*
%TO.P,D2,2,DOUT*%
%TO.N,Net-(D2-DOUT)*%
X100150000Y-73450000D03*
%TO.P,D2,3,VSS*%
%TO.N,GND*%
X100150000Y-68550000D03*
%TO.P,D2,4,DIN*%
%TO.N,Net-(D1-DOUT)*%
X96850000Y-68550000D03*
%TD*%
%TO.P,D1,4,DIN*%
%TO.N,Net-(D1-DIN)*%
X86200000Y-68600000D03*
%TO.P,D1,3,VSS*%
%TO.N,GND*%
X89500000Y-68600000D03*
%TO.P,D1,2,DOUT*%
%TO.N,Net-(D1-DOUT)*%
X89500000Y-73500000D03*
%TO.P,D1,1,VDD*%
%TO.N,+5V*%
X86200000Y-73500000D03*
%TD*%
D12*
%TO.N,Net-(D2-DOUT)*%
X100150000Y-72398300D02*
X100150000Y-73450000D01*
X106403000Y-72398300D02*
X100150000Y-72398300D01*
X109350000Y-69451700D02*
X106403000Y-72398300D01*
X109350000Y-68400000D02*
X109350000Y-69451700D01*
%TO.N,Net-(D1-DOUT)*%
X89500000Y-72448300D02*
X89500000Y-73500000D01*
X94003400Y-72448300D02*
X89500000Y-72448300D01*
X96850000Y-69601700D02*
X94003400Y-72448300D01*
X96850000Y-68550000D02*
X96850000Y-69601700D01*
%TO.N,GND*%
X89500000Y-68600000D02*
X89500000Y-67548300D01*
X88448400Y-66496700D02*
X89500000Y-67548300D01*
X58490000Y-66496700D02*
X88448400Y-66496700D01*
X58490000Y-65205000D02*
X58490000Y-66496700D01*
X101000000Y-67348300D02*
X100150000Y-68198700D01*
X112650000Y-67348300D02*
X101000000Y-67348300D01*
X112650000Y-68400000D02*
X112650000Y-67348300D01*
X99500000Y-67548300D02*
X99500000Y-67548700D01*
X99450000Y-67498300D02*
X99500000Y-67548300D01*
X89550000Y-67498300D02*
X99450000Y-67498300D01*
X89500000Y-67548300D02*
X89550000Y-67498300D01*
X99500000Y-67548700D02*
X99500000Y-67549100D01*
X99500000Y-67548700D02*
X100150000Y-68198700D01*
X100150000Y-68198700D02*
X100150000Y-68550000D01*
%TO.N,Net-(D1-DIN)*%
X86200000Y-69651700D02*
X86200000Y-68600000D01*
X61325000Y-69651700D02*
X86200000Y-69651700D01*
X60771700Y-70205000D02*
X61325000Y-69651700D01*
X58490000Y-70205000D02*
X60771700Y-70205000D01*
%TO.N,+5V*%
X85546700Y-75205000D02*
X86200000Y-74551700D01*
X58490000Y-75205000D02*
X85546700Y-75205000D01*
X86200000Y-73500000D02*
X86200000Y-74551700D01*
X96800000Y-74551700D02*
X86200000Y-74551700D01*
X96850000Y-74501700D02*
X96800000Y-74551700D01*
X96850000Y-73450000D02*
X96850000Y-74501700D01*
X109200000Y-74501700D02*
X96850000Y-74501700D01*
X109350000Y-74351700D02*
X109200000Y-74501700D01*
X109350000Y-73300000D02*
X109350000Y-74351700D01*
%TD*%
M02*
